<svg width="301" height="302" viewBox="0 0 301 302" fill="none" xmlns="http://www.w3.org/2000/svg">
<g filter="url(#filter0_i_156_1485)">
<rect y="0.971436" width="301" height="301" rx="74.7163" fill="url(#paint0_linear_156_1485)"/>
<g filter="url(#filter1_diiii_156_1485)">
<path d="M150.456 259.277C171.208 259.277 188.031 242.454 188.031 221.701C188.031 200.949 171.208 184.126 150.456 184.126C129.704 184.126 112.881 200.949 112.881 221.701C112.881 242.454 129.704 259.277 150.456 259.277Z" fill="#E8E8E8"/>
<path d="M225.606 129.553C221.491 129.553 217.555 130.179 213.886 131.431L184.274 97.6137C186.689 92.6932 188.031 87.1464 188.031 81.2417C188.031 60.4859 171.212 43.6665 150.456 43.6665C129.7 43.6665 112.881 60.4859 112.881 81.2417C112.881 87.5937 114.491 93.5878 117.265 98.7768L88.3675 131.879C84.2521 130.358 79.8683 129.553 75.3056 129.553C54.5498 129.553 37.7305 146.372 37.7305 167.128C37.7305 187.884 54.5498 204.703 75.3056 204.703C96.0615 204.703 112.881 187.884 112.881 167.128C112.881 160.776 111.27 154.782 108.497 149.593L137.394 116.58C141.42 118.101 145.804 118.906 150.456 118.906C154.482 118.906 158.418 118.28 162.086 117.028L191.789 150.935C189.463 155.855 188.121 161.402 188.121 167.217C188.121 187.973 204.94 204.792 225.696 204.792C246.452 204.792 263.271 187.973 263.271 167.217C263.182 146.372 246.362 129.553 225.606 129.553Z" fill="#E8E8E8"/>
</g>
<mask id="mask0_156_1485" style="mask-type:alpha" maskUnits="userSpaceOnUse" x="37" y="43" width="227" height="217">
<path d="M150.456 259.277C171.208 259.277 188.031 242.454 188.031 221.701C188.031 200.949 171.208 184.126 150.456 184.126C129.704 184.126 112.881 200.949 112.881 221.701C112.881 242.454 129.704 259.277 150.456 259.277Z" fill="#E8E8E8"/>
<path d="M225.606 129.553C221.491 129.553 217.555 130.179 213.886 131.431L184.274 97.6137C186.689 92.6932 188.031 87.1464 188.031 81.2417C188.031 60.4859 171.212 43.6665 150.456 43.6665C129.7 43.6665 112.881 60.4859 112.881 81.2417C112.881 87.5937 114.491 93.5878 117.265 98.7768L88.3675 131.879C84.2521 130.358 79.8683 129.553 75.3056 129.553C54.5498 129.553 37.7305 146.372 37.7305 167.128C37.7305 187.884 54.5498 204.703 75.3056 204.703C96.0615 204.703 112.881 187.884 112.881 167.128C112.881 160.776 111.27 154.782 108.497 149.593L137.394 116.58C141.42 118.101 145.804 118.906 150.456 118.906C154.482 118.906 158.418 118.28 162.086 117.028L191.789 150.935C189.463 155.855 188.121 161.402 188.121 167.217C188.121 187.973 204.94 204.792 225.696 204.792C246.452 204.792 263.271 187.973 263.271 167.217C263.182 146.372 246.362 129.553 225.606 129.553Z" fill="#E8E8E8"/>
</mask>
<g mask="url(#mask0_156_1485)">
<g filter="url(#filter2_f_156_1485)">
<circle cx="149.433" cy="144" r="136.624" fill="url(#paint1_linear_156_1485)"/>
</g>
</g>
</g>
<defs>
<filter id="filter0_i_156_1485" x="0" y="-7.56757" width="301" height="309.539" filterUnits="userSpaceOnUse" color-interpolation-filters="sRGB">
<feFlood flood-opacity="0" result="BackgroundImageFix"/>
<feBlend mode="normal" in="SourceGraphic" in2="BackgroundImageFix" result="shape"/>
<feColorMatrix in="SourceAlpha" type="matrix" values="0 0 0 0 0 0 0 0 0 0 0 0 0 0 0 0 0 0 127 0" result="hardAlpha"/>
<feOffset dy="-8.53901"/>
<feGaussianBlur stdDeviation="16.6511"/>
<feComposite in2="hardAlpha" operator="arithmetic" k2="-1" k3="1"/>
<feColorMatrix type="matrix" values="0 0 0 0 0 0 0 0 0 0 0 0 0 0 0 0 0 0 0.5 0"/>
<feBlend mode="normal" in2="shape" result="effect1_innerShadow_156_1485"/>
</filter>
<filter id="filter1_diiii_156_1485" x="29.1915" y="39.397" width="242.619" height="236.958" filterUnits="userSpaceOnUse" color-interpolation-filters="sRGB">
<feFlood flood-opacity="0" result="BackgroundImageFix"/>
<feColorMatrix in="SourceAlpha" type="matrix" values="0 0 0 0 0 0 0 0 0 0 0 0 0 0 0 0 0 0 127 0" result="hardAlpha"/>
<feOffset dy="8.53901"/>
<feGaussianBlur stdDeviation="4.2695"/>
<feComposite in2="hardAlpha" operator="out"/>
<feColorMatrix type="matrix" values="0 0 0 0 0 0 0 0 0 0 0 0 0 0 0 0 0 0 0.25 0"/>
<feBlend mode="normal" in2="BackgroundImageFix" result="effect1_dropShadow_156_1485"/>
<feBlend mode="normal" in="SourceGraphic" in2="effect1_dropShadow_156_1485" result="shape"/>
<feColorMatrix in="SourceAlpha" type="matrix" values="0 0 0 0 0 0 0 0 0 0 0 0 0 0 0 0 0 0 127 0" result="hardAlpha"/>
<feOffset dy="-4.2695"/>
<feGaussianBlur stdDeviation="3.73582"/>
<feComposite in2="hardAlpha" operator="arithmetic" k2="-1" k3="1"/>
<feColorMatrix type="matrix" values="0 0 0 0 0 0 0 0 0 0 0 0 0 0 0 0 0 0 0.25 0"/>
<feBlend mode="normal" in2="shape" result="effect2_innerShadow_156_1485"/>
<feColorMatrix in="SourceAlpha" type="matrix" values="0 0 0 0 0 0 0 0 0 0 0 0 0 0 0 0 0 0 127 0" result="hardAlpha"/>
<feOffset dy="2.13475"/>
<feGaussianBlur stdDeviation="4.2695"/>
<feComposite in2="hardAlpha" operator="arithmetic" k2="-1" k3="1"/>
<feColorMatrix type="matrix" values="0 0 0 0 0 0 0 0 0 0 0 0 0 0 0 0 0 0 0.25 0"/>
<feBlend mode="normal" in2="effect2_innerShadow_156_1485" result="effect3_innerShadow_156_1485"/>
<feColorMatrix in="SourceAlpha" type="matrix" values="0 0 0 0 0 0 0 0 0 0 0 0 0 0 0 0 0 0 127 0" result="hardAlpha"/>
<feOffset dx="-4.2695" dy="6.40426"/>
<feGaussianBlur stdDeviation="7.47163"/>
<feComposite in2="hardAlpha" operator="arithmetic" k2="-1" k3="1"/>
<feColorMatrix type="matrix" values="0 0 0 0 1 0 0 0 0 1 0 0 0 0 1 0 0 0 1 0"/>
<feBlend mode="normal" in2="effect3_innerShadow_156_1485" result="effect4_innerShadow_156_1485"/>
<feColorMatrix in="SourceAlpha" type="matrix" values="0 0 0 0 0 0 0 0 0 0 0 0 0 0 0 0 0 0 127 0" result="hardAlpha"/>
<feOffset dx="-2.13475" dy="2.13475"/>
<feGaussianBlur stdDeviation="2.34823"/>
<feComposite in2="hardAlpha" operator="arithmetic" k2="-1" k3="1"/>
<feColorMatrix type="matrix" values="0 0 0 0 0.758398 0 0 0 0 0.758398 0 0 0 0 0.758398 0 0 0 1 0"/>
<feBlend mode="normal" in2="effect4_innerShadow_156_1485" result="effect5_innerShadow_156_1485"/>
</filter>
<filter id="filter2_f_156_1485" x="-7.8985" y="-13.3314" width="314.662" height="314.662" filterUnits="userSpaceOnUse" color-interpolation-filters="sRGB">
<feFlood flood-opacity="0" result="BackgroundImageFix"/>
<feBlend mode="normal" in="SourceGraphic" in2="BackgroundImageFix" result="shape"/>
<feGaussianBlur stdDeviation="10.3535" result="effect1_foregroundBlur_156_1485"/>
</filter>
<linearGradient id="paint0_linear_156_1485" x1="150.5" y1="0.971436" x2="150.5" y2="301.971" gradientUnits="userSpaceOnUse">
<stop stop-color="#121315"/>
<stop offset="1" stop-color="#222326"/>
</linearGradient>
<linearGradient id="paint1_linear_156_1485" x1="29.0412" y1="344.202" x2="130.495" y2="96.6549" gradientUnits="userSpaceOnUse">
<stop stop-color="#D9D9D9" stop-opacity="0"/>
<stop offset="1" stop-color="white"/>
</linearGradient>
</defs>
</svg>
